<svg width="159" height="40" viewBox="0 0 159 40" fill="none" xmlns="http://www.w3.org/2000/svg">
<g clip-path="url(#clip0_1082_11469)">
<path d="M62.4761 12.7219L59.3174 13.2941V22.9393L62.4761 22.3522V12.7219Z" fill="#131313"/>
<path d="M85.2119 14.6539L87.3896 14.2749V11.6593L85.2119 12.0383V14.6539Z" fill="#131313"/>
<path d="M105.844 27.2936C105.041 25.7406 104.945 22.5899 104.937 21.4084V21.0072C104.937 20.9626 104.937 20.9403 104.937 20.9403V20.9551V3.37387C104.937 1.27095 103.042 -0.311806 100.976 0.0523036L80.3064 3.73798V3.37387C80.3064 1.27095 78.4112 -0.311806 76.345 0.0523036L55.6756 3.73798V3.37387C55.6756 1.27095 53.7804 -0.311806 51.7142 0.0523036L31.0449 3.73798V3.37387C31.0449 1.27095 29.1496 -0.311806 27.0834 0.0523036L4.39251 4.10209C4.31076 3.29956 3.56752 2.71253 2.74997 2.85372L1.16688 3.13609C0.490534 3.25498 0 3.84201 0 4.52565V39.2126C0 39.7031 0.44594 40.0746 0.929042 39.9929L3.76076 39.495C4.13981 39.4281 4.41481 39.1012 4.41481 38.7148V33.7064L25.9017 29.8721C25.9314 29.8721 25.9612 29.8647 25.9909 29.8647C26.2436 29.8647 26.4591 30.0727 26.4591 30.3254C26.5632 32.3317 28.4064 33.8253 30.4057 33.4612L50.6217 29.8572C50.8744 29.8572 51.0825 30.0133 51.0825 30.2659V30.3031C51.1791 32.3243 53.0297 33.8253 55.0439 33.4686L75.2599 29.8647C75.5126 29.8647 75.7132 30.0282 75.7132 30.2808C75.795 32.3168 77.6456 33.8327 79.6672 33.4686C79.6672 33.4686 102.447 29.6492 104.365 29.0621C104.729 28.9655 105.041 28.8541 105.316 28.7352C105.874 28.4974 106.111 27.8435 105.836 27.3085L105.844 27.2936ZM7.89314 8.79092L23.4639 6.04896C24.7274 5.82604 25.9612 6.62856 26.303 7.75061V18.3172L21.0707 19.2386V10.8641L7.89314 13.2048V8.79092ZM27.7523 24.403L6.42897 28.1705V23.8755L12.4715 22.8128V16.3109L17.7113 15.3895V21.8914L27.7523 20.1155V24.4105V24.403ZM32.3307 8.59772L46.6899 6.0341C48.1764 5.77402 49.6332 6.93322 49.6257 8.36737V16.5338L44.3339 17.3884V10.7824L32.3307 12.9745V8.59029V8.59772ZM50.5771 22.0475L42.892 23.3776V26.4985L37.6522 27.4199V24.2767L31.5354 25.3393V21.0443L50.5771 17.745V22.04V22.0475ZM67.4336 25.5771L58.8938 27.0558C56.6716 27.4497 54.3453 25.8966 54.3081 23.8829V10.0467L67.4336 7.78777V25.5845V25.5771ZM76.018 13.7621L73.5801 14.1857V23.1324C73.5727 24.2693 72.5991 25.2056 71.4173 25.4062L68.4295 25.9338V7.17844L73.5801 6.30161V10.0839L76.018 9.64547V13.7547V13.7621ZM79.4963 19.3278V15.6496L80.7226 15.4489V12.8258L79.4963 13.0413V9.42997L93.1198 7.04469V10.6561L91.8711 10.8715V13.4872L93.1198 13.2643V16.9425L79.4963 19.3278ZM99.1102 22.7831C99.0954 24.143 98.0771 25.265 96.6278 25.5251L84.2678 27.7097C82.1571 28.0813 80.1057 26.506 80.1206 24.5294V20.5539L99.1623 17.2026L99.1102 22.7906V22.7831ZM100.924 9.57859L98.8947 9.92784V15.9096L94.086 16.7567V6.86635L100.924 5.66999V9.58602V9.57859Z" fill="#131313"/>
<path d="M94.3533 20.9626L84.8994 22.6346V23.6823L94.3533 22.0104V20.9626Z" fill="#131313"/>
<path d="M115.149 9.17743C115.342 8.89506 115.603 8.66471 115.937 8.48637C116.279 8.30803 116.665 8.21886 117.096 8.21886C117.602 8.21886 118.055 8.34518 118.464 8.5904C118.88 8.83562 119.2 9.19229 119.438 9.66044C119.683 10.1137 119.802 10.6487 119.802 11.2506C119.802 11.8525 119.683 12.395 119.438 12.8631C119.2 13.3238 118.88 13.6879 118.464 13.9406C118.055 14.1932 117.602 14.327 117.096 14.327C116.658 14.327 116.271 14.2452 115.937 14.0743C115.61 13.896 115.35 13.6656 115.149 13.3907V14.2304H113.655V6.33887H115.149V9.18486V9.17743ZM118.271 11.2506C118.271 10.8939 118.196 10.5893 118.048 10.3366C117.907 10.0766 117.713 9.87593 117.468 9.74217C117.23 9.60842 116.978 9.54154 116.703 9.54154C116.428 9.54154 116.175 9.61585 115.937 9.75704C115.699 9.89079 115.513 10.0914 115.357 10.3515C115.216 10.6116 115.142 10.9237 115.142 11.2804C115.142 11.637 115.216 11.9417 115.357 12.2092C115.506 12.4693 115.699 12.6773 115.937 12.8185C116.182 12.9523 116.435 13.0192 116.703 13.0192C116.97 13.0192 117.238 12.9448 117.468 12.8037C117.713 12.6625 117.899 12.4618 118.048 12.1943C118.196 11.9343 118.271 11.6147 118.271 11.2581V11.2506ZM126.536 8.31546L122.879 17.0169H121.288L122.567 14.0743L120.196 8.31546H121.868L123.392 12.447L124.938 8.31546H126.528H126.536ZM128.007 14.2973C127.74 14.2973 127.509 14.2155 127.338 14.052C127.167 13.8811 127.086 13.6731 127.086 13.4204C127.086 13.1678 127.167 12.9671 127.338 12.8037C127.517 12.6328 127.74 12.551 128.007 12.551C128.275 12.551 128.49 12.6328 128.661 12.8037C128.832 12.9671 128.914 13.1752 128.914 13.4204C128.914 13.6656 128.832 13.8811 128.661 14.052C128.49 14.2155 128.275 14.2973 128.007 14.2973Z" fill="#131313"/>
<path d="M118.724 20.1074V21.3112H116.74V27.553H115.246V21.3112H113.262V20.1074H118.724ZM123.139 21.5638C123.585 21.5638 123.987 21.6604 124.336 21.861C124.685 22.0542 124.953 22.344 125.146 22.723C125.347 23.102 125.443 23.5553 125.443 24.0903V27.5605H123.949V24.2983C123.949 23.8302 123.831 23.4735 123.6 23.2209C123.362 22.9682 123.043 22.8345 122.641 22.8345C122.24 22.8345 121.898 22.9608 121.66 23.2209C121.422 23.4661 121.311 23.8302 121.311 24.2983V27.5605H119.817V19.6689H121.311V22.3886C121.504 22.136 121.757 21.9353 122.076 21.7942C122.396 21.6455 122.753 21.5712 123.147 21.5712L123.139 21.5638ZM132.363 24.4767C132.363 24.6922 132.348 24.8854 132.318 25.0563H128C128.037 25.4798 128.186 25.8142 128.446 26.0594C128.706 26.3047 129.033 26.4235 129.42 26.4235C129.977 26.4235 130.371 26.1858 130.601 25.7102H132.214C132.043 26.2824 131.716 26.7505 131.233 27.1146C130.75 27.4787 130.155 27.6571 129.449 27.6571C128.877 27.6571 128.372 27.5307 127.911 27.2855C127.465 27.0329 127.108 26.6688 126.855 26.2081C126.61 25.7473 126.484 25.2123 126.484 24.6104C126.484 24.0085 126.61 23.4587 126.855 22.9979C127.101 22.5372 127.45 22.1806 127.903 21.9279C128.349 21.6827 128.87 21.5564 129.449 21.5564C130.029 21.5564 130.512 21.6753 130.951 21.9205C131.397 22.1657 131.746 22.5075 131.984 22.9534C132.229 23.3918 132.355 23.9045 132.355 24.4767H132.363ZM130.809 24.0457C130.809 23.6593 130.661 23.3546 130.393 23.1317C130.126 22.8939 129.791 22.7825 129.397 22.7825C129.026 22.7825 128.714 22.8939 128.461 23.1243C128.216 23.3472 128.06 23.6519 128 24.0531H130.809V24.0457ZM138.561 27.6273C138.041 27.6273 137.573 27.5382 137.157 27.3598C136.74 27.1815 136.413 26.9288 136.176 26.5945C135.938 26.2601 135.811 25.8662 135.804 25.413H137.402C137.424 25.7176 137.528 25.9628 137.722 26.1412C137.922 26.3195 138.19 26.4087 138.532 26.4087C138.874 26.4087 139.156 26.3269 139.357 26.1635C139.557 25.9926 139.654 25.7696 139.654 25.5021C139.654 25.2792 139.587 25.1009 139.453 24.9597C139.319 24.8185 139.149 24.707 138.94 24.6253C138.74 24.5436 138.465 24.447 138.108 24.3504C137.625 24.2092 137.231 24.068 136.926 23.9342C136.629 23.793 136.369 23.585 136.146 23.3026C135.93 23.0202 135.826 22.6413 135.826 22.1731C135.826 21.7347 135.938 21.3483 136.161 21.0214C136.384 20.6944 136.688 20.4417 137.09 20.2783C137.491 20.0999 137.945 20.0108 138.457 20.0108C139.223 20.0108 139.847 20.1965 140.323 20.5755C140.806 20.947 141.074 21.4672 141.126 22.136H139.483C139.468 21.8833 139.357 21.6678 139.149 21.5044C138.948 21.3334 138.68 21.2517 138.346 21.2517C138.056 21.2517 137.818 21.326 137.64 21.4746C137.469 21.6232 137.387 21.8387 137.387 22.1285C137.387 22.3292 137.454 22.4927 137.58 22.6264C137.714 22.7527 137.878 22.8642 138.071 22.9459C138.272 23.0277 138.547 23.1168 138.903 23.2209C139.386 23.3621 139.78 23.5032 140.085 23.6444C140.39 23.7856 140.657 24.0011 140.873 24.2835C141.088 24.5658 141.207 24.9448 141.207 25.4055C141.207 25.8068 141.103 26.1709 140.895 26.5127C140.687 26.8545 140.39 27.1295 139.988 27.3375C139.587 27.5382 139.119 27.6348 138.569 27.6348L138.561 27.6273ZM150.617 20.1074V27.553H149.123V22.7081L147.131 27.553H146.001L143.994 22.7081V27.553H142.501V20.1074H144.195L146.566 25.6433L148.937 20.1074H150.624H150.617ZM151.724 23.8228C151.724 23.0871 151.888 22.4332 152.215 21.861C152.549 21.2814 153.002 20.8282 153.567 20.5086C154.147 20.1817 154.786 20.0182 155.5 20.0182C156.332 20.0182 157.06 20.2337 157.685 20.6572C158.309 21.0808 158.748 21.6753 159 22.4258H157.283C157.113 22.0691 156.867 21.8016 156.555 21.6232C156.25 21.4449 155.894 21.3557 155.485 21.3557C155.054 21.3557 154.66 21.4598 154.325 21.6678C153.991 21.8685 153.731 22.1508 153.538 22.5224C153.352 22.8939 153.263 23.3249 153.263 23.8228C153.263 24.3206 153.352 24.7442 153.538 25.1232C153.731 25.4947 153.991 25.7845 154.325 25.9851C154.667 26.1858 155.054 26.2824 155.485 26.2824C155.894 26.2824 156.243 26.1932 156.555 26.0148C156.867 25.8291 157.113 25.5616 157.283 25.2049H159C158.755 25.9628 158.317 26.5573 157.685 26.9883C157.068 27.4044 156.34 27.6199 155.5 27.6199C154.786 27.6199 154.147 27.4564 153.567 27.1369C152.995 26.8099 152.549 26.3567 152.215 25.7845C151.888 25.2049 151.724 24.551 151.724 23.8228Z" fill="#131313"/>
</g>
<defs>
<clipPath id="clip0_1082_11469">
<rect width="159" height="40" fill="white"/>
</clipPath>
</defs>
</svg>
